<?xml version="1.0" encoding="UTF-8" standalone="no"?>
<!-- Created with Inkscape (http://www.inkscape.org/) -->

<svg
   xmlns:dc="http://purl.org/dc/elements/1.1/"
   xmlns:cc="http://creativecommons.org/ns#"
   xmlns:rdf="http://www.w3.org/1999/02/22-rdf-syntax-ns#"
   xmlns:svg="http://www.w3.org/2000/svg"
   xmlns="http://www.w3.org/2000/svg"
   xmlns:sodipodi="http://sodipodi.sourceforge.net/DTD/sodipodi-0.dtd"
   xmlns:inkscape="http://www.inkscape.org/namespaces/inkscape"
   version="1.1"
   id="svg2"
   xml:space="preserve"
   width="1056"
   height="816"
   viewBox="0 0 1056 816"
   sodipodi:docname="PSM_1_Labels.svg"
   inkscape:version="0.92.3 (2405546, 2018-03-11)"><metadata
     id="metadata8"><rdf:RDF><cc:Work
         rdf:about=""><dc:format>image/svg+xml</dc:format><dc:type
           rdf:resource="http://purl.org/dc/dcmitype/StillImage" /><dc:title /></cc:Work></rdf:RDF></metadata><defs
     id="defs6" /><sodipodi:namedview
     pagecolor="#ffffff"
     bordercolor="#666666"
     borderopacity="1"
     objecttolerance="10"
     gridtolerance="10"
     guidetolerance="10"
     inkscape:pageopacity="0"
     inkscape:pageshadow="2"
     inkscape:window-width="2493"
     inkscape:window-height="1385"
     id="namedview4"
     showgrid="false"
     inkscape:zoom="1.1568627"
     inkscape:cx="528.00001"
     inkscape:cy="408.00001"
     inkscape:window-x="2627"
     inkscape:window-y="27"
     inkscape:window-maximized="1"
     inkscape:current-layer="g12" /><g
     id="g10"
     inkscape:groupmode="layer"
     inkscape:label="PSM_1_Labels"
     transform="matrix(1.3333333,0,0,1.3333333,0,2.04e-5)"><g
       id="g12"><path
   d="m 48.492,426.867 h 596.117 v 77.145 H 48.492 Z"
   style="fill:#ffffff;fill-opacity:0.21568598;fill-rule:nonzero;stroke:none"
   id="path14"
   inkscape:connector-curvature="0" /><g
   id="g16"
   transform="scale(1,0.864102)"><path
     d="m 48.492,494.001 h 596.117 v 89.277 H 48.492 Z"
     style="fill:none;stroke:#000000;stroke-width:0.60988301;stroke-linecap:butt;stroke-linejoin:miter;stroke-miterlimit:4;stroke-dasharray:none;stroke-opacity:1"
     id="path18"
     inkscape:connector-curvature="0" /></g><path
   d="m 48.492,426.867 h 496.707 v 77.148 H 48.492 Z"
   style="fill:#ffffff;fill-opacity:0.21568598;fill-rule:nonzero;stroke:none"
   id="path20"
   inkscape:connector-curvature="0" /><g
   id="g22"
   transform="scale(1,0.864102)"><path
     d="m 48.492,494.001 h 496.707 v 89.282 H 48.492 Z"
     style="fill:none;stroke:#000000;stroke-width:0.60988301;stroke-linecap:butt;stroke-linejoin:miter;stroke-miterlimit:4;stroke-dasharray:none;stroke-opacity:1"
     id="path24"
     inkscape:connector-curvature="0" /></g><path
   d="m 48.492,426.867 h 397.301 v 77.148 H 48.492 Z"
   style="fill:#ffffff;fill-opacity:0.21568598;fill-rule:nonzero;stroke:none"
   id="path26"
   inkscape:connector-curvature="0" /><g
   id="g28"
   transform="scale(1,0.864102)"><path
     d="m 48.492,494.001 h 397.301 v 89.282 H 48.492 Z"
     style="fill:none;stroke:#000000;stroke-width:0.60988301;stroke-linecap:butt;stroke-linejoin:miter;stroke-miterlimit:4;stroke-dasharray:none;stroke-opacity:1"
     id="path30"
     inkscape:connector-curvature="0" /></g><path
   d="m 48.492,426.867 h 297.906 v 77.148 H 48.492 Z"
   style="fill:#ffffff;fill-opacity:0.21568598;fill-rule:nonzero;stroke:none"
   id="path32"
   inkscape:connector-curvature="0" /><g
   id="g34"
   transform="scale(1,0.864102)"><path
     d="m 48.492,494.001 h 297.906 v 89.282 H 48.492 Z"
     style="fill:none;stroke:#000000;stroke-width:0.60988301;stroke-linecap:butt;stroke-linejoin:miter;stroke-miterlimit:4;stroke-dasharray:none;stroke-opacity:1"
     id="path36"
     inkscape:connector-curvature="0" /></g><path
   d="m 48.492,426.867 h 198.527 v 77.152 H 48.492 Z"
   style="fill:#ffffff;fill-opacity:0.21568598;fill-rule:nonzero;stroke:none"
   id="path38"
   inkscape:connector-curvature="0" /><g
   id="g40"
   transform="scale(1,0.864102)"><path
     d="m 48.492,494.001 h 198.527 v 89.286 H 48.492 Z"
     style="fill:none;stroke:#000000;stroke-width:0.60988301;stroke-linecap:butt;stroke-linejoin:miter;stroke-miterlimit:4;stroke-dasharray:none;stroke-opacity:1"
     id="path42"
     inkscape:connector-curvature="0" /></g><path
   d="m 48.492,426.867 h 99.176 v 77.152 H 48.492 Z"
   style="fill:#ffffff;fill-opacity:0.21568598;fill-rule:nonzero;stroke:none"
   id="path44"
   inkscape:connector-curvature="0" /><g
   id="g46"
   transform="scale(1,0.864102)"><path
     d="m 48.492,494.001 h 99.176 v 89.286 H 48.492 Z"
     style="fill:none;stroke:#000000;stroke-width:0.60988301;stroke-linecap:butt;stroke-linejoin:miter;stroke-miterlimit:4;stroke-dasharray:none;stroke-opacity:1"
     id="path48"
     inkscape:connector-curvature="0" /></g><text
   transform="matrix(0.8936018,0,0,1,50.865678,468.01069)"
   style="font-variant:normal;font-weight:normal;font-size:10.27691269px;font-family:'DejaVu Sans';-inkscape-font-specification:DejaVuSans;writing-mode:lr-tb;fill:#000000;fill-opacity:1;fill-rule:nonzero;stroke:none"
   id="text64"><tspan
     x="0 3.6996887 10.235806 16.771921 23.308039 33.112213 39.309193 45.824757 54.683453 57.941235 64.477356 67.765961 71.023743 74.045158 80.324348 83.171059 89.676346 93.704895 96.962677"
     y="0"
     sodipodi:role="line"
     id="tspan50">-135 PSM 1, Joint 5</tspan><tspan
     x="113.37074 117.07042 123.60654"
     y="1.6449637"
     sodipodi:role="line"
     id="tspan52">-90</tspan><tspan
     x="222.38426 226.08395 232.62007"
     y="2.7973654"
     sodipodi:role="line"
     id="tspan54">-45</tspan><tspan
     x="333.01245 339.54855 349.3219 355.51889 362.03445 370.92398 374.18176 380.7179 383.97568 387.23346 390.25485 396.53406 399.38077 405.88605 409.91458 413.20322"
     y="3.2899923"
     sodipodi:role="line"
     id="tspan56">0 PSM 1, Joint 5</tspan><tspan
     x="445.28613 451.82224"
     y="3.7012188"
     sodipodi:role="line"
     id="tspan58">45</tspan><tspan
     x="556.26953 562.80566"
     y="4.5237336"
     sodipodi:role="line"
     id="tspan60">90</tspan><tspan
     x="643.29663 649.83276 656.3689"
     y="6.2501011"
     sodipodi:role="line"
     id="tspan62">135</tspan></text>

<path
   d="M 48.488,532.039 H 615.953 V 553.75 H 48.488 Z"
   style="fill:#ffffff;fill-opacity:0.21568598;fill-rule:nonzero;stroke:none"
   id="path66"
   inkscape:connector-curvature="0" /><g
   id="g68"
   transform="scale(1,0.864102)"><path
     d="m 48.488,615.714 h 567.465 v 25.125 H 48.488 Z"
     style="fill:none;stroke:#000000;stroke-width:0.59508997;stroke-linecap:butt;stroke-linejoin:miter;stroke-miterlimit:4;stroke-dasharray:none;stroke-opacity:1"
     id="path70"
     inkscape:connector-curvature="0" /></g><text
   transform="matrix(0.89360177,0,0,1,54.29309,545.7705)"
   style="font-variant:normal;font-weight:normal;font-size:8.46287632px;font-family:'DejaVu Sans';-inkscape-font-specification:DejaVuSans;writing-mode:lr-tb;fill:#000000;fill-opacity:1;fill-rule:nonzero;stroke:none"
   id="text74"><tspan
     x="0 5.1623545 10.519355 12.863571 17.264267 19.946999 25.312462 30.229393 35.230953 37.913685 42.314381 47.671379 52.842197 58.224586 60.568802 65.934265 68.616997 73.98246 79.187134 81.869865 87.252251 92.634644 95.317375 99.988876 108.23172 110.91445 113.25867 118.42949 123.78648 129.15195 131.83469 134.17889 137.15784 139.84056 145.20602 148.68427 151.02849 156.38548 159.72832 164.93298 170.29845 172.98119 177.6273 182.79813 186.14096 189.44148 194.64615 199.29227 202.60971 204.95393"
     y="0"
     sodipodi:role="line"
     id="tspan72">This box should be 20 cm long if printed correctly</tspan></text>

<path
   d="m 48.492,30.992 h 492.746 v 76.176 H 48.492 Z"
   style="fill:#ffffff;fill-opacity:0.21568598;fill-rule:nonzero;stroke:none"
   id="path76"
   inkscape:connector-curvature="0" /><g
   id="g78"
   transform="scale(1,0.864102)"><path
     d="m 48.492,35.866 h 492.746 v 88.156 H 48.492 Z"
     style="fill:none;stroke:#000000;stroke-width:0.60988301;stroke-linecap:butt;stroke-linejoin:miter;stroke-miterlimit:4;stroke-dasharray:none;stroke-opacity:1"
     id="path80"
     inkscape:connector-curvature="0" /></g><path
   d="m 48.492,30.992 h 328.5 v 76.176 h -328.5 z"
   style="fill:#ffffff;fill-opacity:0.21568598;fill-rule:nonzero;stroke:none"
   id="path82"
   inkscape:connector-curvature="0" /><g
   id="g84"
   transform="scale(1,0.864102)"><path
     d="m 48.492,35.866 h 328.5 v 88.156 h -328.5 z"
     style="fill:none;stroke:#000000;stroke-width:0.60988301;stroke-linecap:butt;stroke-linejoin:miter;stroke-miterlimit:4;stroke-dasharray:none;stroke-opacity:1"
     id="path86"
     inkscape:connector-curvature="0" /></g><path
   d="m 48.492,30.992 h 164.25 v 76.176 H 48.492 Z"
   style="fill:#ffffff;fill-opacity:0.21568598;fill-rule:nonzero;stroke:none"
   id="path88"
   inkscape:connector-curvature="0" /><g
   id="g90"
   transform="scale(1,0.864102)"><path
     d="m 48.492,35.866 h 164.25 v 88.156 H 48.492 Z"
     style="fill:none;stroke:#000000;stroke-width:0.60988301;stroke-linecap:butt;stroke-linejoin:miter;stroke-miterlimit:4;stroke-dasharray:none;stroke-opacity:1"
     id="path92"
     inkscape:connector-curvature="0" /></g><text
   transform="matrix(1,0,0,0.86410152,55.70003,72.055821)"
   style="font-variant:normal;font-weight:normal;font-size:10.75765514px;font-family:'DejaVu Sans';-inkscape-font-specification:DejaVuSans;writing-mode:lr-tb;fill:#000000;fill-opacity:1;fill-rule:nonzero;stroke:none"
   id="text102"><tspan
     x="0 3.8727558 10.714624 17.556494 27.819296 34.30616 41.126514 50.399612 53.809792 60.651657 64.061836 67.504288 70.667038 77.23996 80.219833 87.029427 91.246429 94.656609"
     y="0"
     sodipodi:role="line"
     id="tspan94">-90 PSM 1, Joint 1</tspan><tspan
     x="162.64084 166.5136 173.35547"
     y="2.0013003"
     sodipodi:role="line"
     id="tspan96">-45</tspan><tspan
     x="330.30768 337.14957 347.3801 353.86694 360.68732 369.99268 373.40286 380.24472 383.65491 387.06506 390.22781 396.80075 399.78061 406.59021 410.80722 414.24966"
     y="0"
     sodipodi:role="line"
     id="tspan98">0 PSM 1, Joint 1</tspan><tspan
     x="493.31641 500.15826 632.15741 638.99927"
     y="2.0013003"
     sodipodi:role="line"
     id="tspan100">4590</tspan></text>

<path
   d="m 48.492,30.992 h 655.805 v 76.176 H 48.492 Z"
   style="fill:#ffffff;fill-opacity:0.21568598;fill-rule:nonzero;stroke:none"
   id="path104"
   inkscape:connector-curvature="0" /><g
   id="g106"
   transform="scale(1,0.864102)"><path
     d="m 48.492,35.866 h 655.805 v 88.156 H 48.492 Z"
     style="fill:none;stroke:#000000;stroke-width:0.60988301;stroke-linecap:butt;stroke-linejoin:miter;stroke-miterlimit:4;stroke-dasharray:none;stroke-opacity:1"
     id="path108"
     inkscape:connector-curvature="0" /></g><path
   d="m 48.492,129.367 h 444.914 v 77.008 H 48.492 Z"
   style="fill:#ffffff;fill-opacity:0.21568598;fill-rule:nonzero;stroke:none"
   id="path110"
   inkscape:connector-curvature="0" /><g
   id="g112"
   transform="scale(1,0.864102)"><path
     d="m 48.492,149.713 h 444.914 v 89.119 H 48.492 Z"
     style="fill:none;stroke:#000000;stroke-width:0.60989398;stroke-linecap:butt;stroke-linejoin:miter;stroke-miterlimit:4;stroke-dasharray:none;stroke-opacity:1"
     id="path114"
     inkscape:connector-curvature="0" /></g><path
   d="m 48.492,129.371 h 296.512 v 77.004 H 48.492 Z"
   style="fill:#ffffff;fill-opacity:0.21568598;fill-rule:nonzero;stroke:none"
   id="path116"
   inkscape:connector-curvature="0" /><g
   id="g118"
   transform="scale(1,0.864102)"><path
     d="m 48.492,149.717 h 296.512 v 89.114 H 48.492 Z"
     style="fill:none;stroke:#000000;stroke-width:0.60988301;stroke-linecap:butt;stroke-linejoin:miter;stroke-miterlimit:4;stroke-dasharray:none;stroke-opacity:1"
     id="path120"
     inkscape:connector-curvature="0" /></g><path
   d="m 48.492,129.375 h 147.242 v 77.008 H 48.492 Z"
   style="fill:#ffffff;fill-opacity:0.21568598;fill-rule:nonzero;stroke:none"
   id="path122"
   inkscape:connector-curvature="0" /><g
   id="g124"
   transform="scale(1,0.864102)"><path
     d="m 48.492,149.722 h 147.242 v 89.119 H 48.492 Z"
     style="fill:none;stroke:#000000;stroke-width:0.60985899;stroke-linecap:butt;stroke-linejoin:miter;stroke-miterlimit:4;stroke-dasharray:none;stroke-opacity:1"
     id="path126"
     inkscape:connector-curvature="0" /></g><text
   transform="matrix(1,0,0,0.86410152,55.474908,170.8346)"
   style="font-variant:normal;font-weight:normal;font-size:10.75765514px;font-family:'DejaVu Sans';-inkscape-font-specification:DejaVuSans;writing-mode:lr-tb;fill:#000000;fill-opacity:1;fill-rule:nonzero;stroke:none"
   id="text136"><tspan
     x="0 3.8727558 10.714624 17.556494 24.398361 27.808538 34.327679 41.148029 50.421127 53.831306 60.673176 64.083351 67.49353 70.656281 77.229202 80.209076 87.018669 91.267944 94.678123"
     y="0"
     sodipodi:role="line"
     id="tspan128">-135 PSM 1, Joint 2</tspan><tspan
     x="145.6669 149.53966 156.38153"
     y="2.0013003"
     sodipodi:role="line"
     id="tspan130">-90</tspan><tspan
     x="293.17831 297.05109 303.89294 310.73483 314.14499 320.63187 327.45221 336.7576 340.16776 347.00964 350.4198 353.82999 356.99274 363.56567 366.54553 373.35513 377.57214 381.01459"
     y="0"
     sodipodi:role="line"
     id="tspan132">-45 PSM 1, Joint 2</tspan><tspan
     x="427.05765"
     y="2.0013003"
     id="tspan134">0</tspan></text>

<path
   d="m 544.242,228.617 h 101.414 v 76.914 H 544.242 Z"
   style="fill:#ffffff;fill-opacity:0.21568598;fill-rule:nonzero;stroke:none"
   id="path138"
   inkscape:connector-curvature="0" /><g
   id="g140"
   transform="scale(1,0.864102)"><path
     d="m 544.242,264.572 h 101.414 v 89.01 H 544.242 Z"
     style="fill:none;stroke:#000000;stroke-width:0.75607502;stroke-linecap:butt;stroke-linejoin:miter;stroke-miterlimit:4;stroke-dasharray:none;stroke-opacity:1"
     id="path142"
     inkscape:connector-curvature="0" /></g><text
   transform="matrix(0.71357111,0,0,1,409.33848,300.56258)"
   style="font-variant:normal;font-weight:normal;font-size:7.17219877px;font-family:'DejaVu Sans';-inkscape-font-specification:DejaVuSans;writing-mode:lr-tb;fill:#000000;fill-opacity:1;fill-rule:nonzero;stroke:none"
   id="text148"><tspan
     x="0 4.5615187"
     y="0"
     sodipodi:role="line"
     id="tspan144">45</tspan><tspan
     x="148.14674 152.70825"
     y="-0.11387157"
     sodipodi:role="line"
     id="tspan146">90</tspan></text>

<text
   transform="matrix(1,0,0,0.86410152,56.204797,269.98154)"
   style="font-variant:normal;font-weight:normal;font-size:10.75765514px;font-family:'DejaVu Sans';-inkscape-font-specification:DejaVuSans;writing-mode:lr-tb;fill:#000000;fill-opacity:1;fill-rule:nonzero;stroke:none"
   id="text154"><tspan
     x="0 3.8727558 10.714624 17.556494 20.966669 27.453535 34.273888 43.579262 46.989437 53.831306 57.241482 60.651657 63.814411 70.387337 73.36721 80.176804 84.393806 87.83625"
     y="0"
     sodipodi:role="line"
     id="tspan150">-90 PSM 1, Joint 3</tspan><tspan
     x="563.80988 570.65173 577.49359"
     y="2.0013542"
     sodipodi:role="line"
     id="tspan152">135</tspan></text>

<path
   d="m 48.598,228.516 h 119.348 v 76.855 H 48.598 Z"
   style="fill:#ffffff;fill-opacity:0.21568598;fill-rule:nonzero;stroke:none"
   id="path156"
   inkscape:connector-curvature="0" /><g
   id="g158"
   transform="scale(1,0.864102)"><path
     d="m 48.598,264.455 h 119.348 v 88.943 H 48.598 Z"
     style="fill:none;stroke:#000000;stroke-width:0.81991601;stroke-linecap:butt;stroke-linejoin:miter;stroke-miterlimit:4;stroke-dasharray:none;stroke-opacity:1"
     id="path160"
     inkscape:connector-curvature="0" /></g><path
   d="m 167.945,228.516 h 119.348 v 76.855 H 167.945 Z"
   style="fill:#ffffff;fill-opacity:0.21568598;fill-rule:nonzero;stroke:none"
   id="path162"
   inkscape:connector-curvature="0" /><g
   id="g164"
   transform="scale(1,0.864102)"><path
     d="m 167.945,264.455 h 119.348 v 88.943 H 167.945 Z"
     style="fill:none;stroke:#000000;stroke-width:0.81991601;stroke-linecap:butt;stroke-linejoin:miter;stroke-miterlimit:4;stroke-dasharray:none;stroke-opacity:1"
     id="path166"
     inkscape:connector-curvature="0" /></g><path
   d="m 287.293,228.516 h 101.414 v 76.91 H 287.293 Z"
   style="fill:#ffffff;fill-opacity:0.21568598;fill-rule:nonzero;stroke:none"
   id="path168"
   inkscape:connector-curvature="0" /><g
   id="g170"
   transform="scale(1,0.864102)"><path
     d="m 287.293,264.455 h 101.414 v 89.006 H 287.293 Z"
     style="fill:none;stroke:#000000;stroke-width:0.75607502;stroke-linecap:butt;stroke-linejoin:miter;stroke-miterlimit:4;stroke-dasharray:none;stroke-opacity:1"
     id="path172"
     inkscape:connector-curvature="0" /></g><path
   d="m 388.461,292.367 h 155.781 v 13.164 H 388.461 Z"
   style="fill:#ffffff;fill-opacity:0.21568598;fill-rule:nonzero;stroke:none"
   id="path174"
   inkscape:connector-curvature="0" /><g
   id="g176"
   transform="scale(1,0.864102)"><path
     d="m 388.461,338.348 h 155.781 v 15.234 H 388.461 Z"
     style="fill:none;stroke:#000000;stroke-width:0.60988301;stroke-linecap:butt;stroke-linejoin:miter;stroke-miterlimit:4;stroke-dasharray:none;stroke-opacity:1"
     id="path178"
     inkscape:connector-curvature="0" /></g><path
   d="m 406.344,292.059 h 0.57 v 13.605 h -0.57 z"
   style="fill:#000000;fill-opacity:1;fill-rule:nonzero;stroke:none"
   id="path180"
   inkscape:connector-curvature="0" /><path
   d="m 526.051,292.059 h 0.566 v 13.605 h -0.566 z"
   style="fill:#000000;fill-opacity:1;fill-rule:nonzero;stroke:none"
   id="path182"
   inkscape:connector-curvature="0" /><text
   transform="matrix(1,0,0,0.86410152,172.07643,271.71091)"
   style="font-variant:normal;font-weight:normal;font-size:10.75765514px;font-family:'DejaVu Sans';-inkscape-font-specification:DejaVuSans;writing-mode:lr-tb;fill:#000000;fill-opacity:1;fill-rule:nonzero;stroke:none"
   id="text188"><tspan
     x="0 3.8727558 10.714624"
     y="0"
     sodipodi:role="line"
     id="tspan184">-45</tspan><tspan
     x="120.31196 127.15382 130.564 137.05087 143.87122 153.14432 156.55449 163.42863 166.83882 170.24899 173.41174 179.98466 182.96454 189.77414 193.99113 197.40131"
     y="-2.0013325"
     sodipodi:role="line"
     id="tspan186">0 PSM 1, Joint 3</tspan></text>




<g
   id="g152"><text
     id="text196"
     style="font-variant:normal;font-weight:normal;font-size:8.2823534px;font-family:'DejaVu Sans';-inkscape-font-specification:DejaVuSans;writing-mode:lr-tb;fill:#000000;fill-opacity:1;fill-rule:nonzero;stroke:none"
     transform="matrix(1,0,0,0.86410154,260.66047,397.8829)"><tspan
       id="tspan190"
       sodipodi:role="line"
       y="0"
       x="0 5.2675767">45</tspan><tspan
       id="tspan192"
       sodipodi:role="line"
       y="-1.6055176"
       x="105.20238 110.46996 118.34647 123.34074 128.59175 135.75598 138.38148 143.64906 148.92493 151.35994 156.42046 158.71466 163.9574 167.20407 169.82957">0 PSM 1,Joint 4</tspan><tspan
       id="tspan194"
       sodipodi:role="line"
       y="0.32801431"
       x="211.49074 214.47238 219.73996">-45</tspan></text>
<path
     inkscape:connector-curvature="0"
     id="path198"
     style="fill:#ffffff;fill-opacity:0.21568598;fill-rule:nonzero;stroke:none"
     d="m 48.57,327.836 h 104.059 v 76.902 H 48.57 Z" /><g
     transform="scale(1,0.864102)"
     id="g200"><path
       inkscape:connector-curvature="0"
       id="path202"
       style="fill:none;stroke:#000000;stroke-width:0.76582402;stroke-linecap:butt;stroke-linejoin:miter;stroke-miterlimit:4;stroke-dasharray:none;stroke-opacity:1"
       d="m 48.57,379.395 h 104.059 v 88.997 H 48.57 Z" /></g><path
     inkscape:connector-curvature="0"
     id="path204"
     style="fill:#ffffff;fill-opacity:0.21568598;fill-rule:nonzero;stroke:none"
     d="m 152.629,327.836 h 56.293 v 76.902 h -56.293 z" /><g
     transform="scale(1,0.864102)"
     id="g206"><path
       inkscape:connector-curvature="0"
       id="path208"
       style="fill:none;stroke:#000000;stroke-width:0.76851398;stroke-linecap:butt;stroke-linejoin:miter;stroke-miterlimit:4;stroke-dasharray:none;stroke-opacity:1"
       d="m 152.629,379.395 h 56.293 v 88.997 h -56.293 z" /></g><path
     inkscape:connector-curvature="0"
     id="path210"
     style="fill:#ffffff;fill-opacity:0.21568598;fill-rule:nonzero;stroke:none"
     d="m 208.922,383.281 h 304.934 v 21.457 H 208.922 Z" /><g
     transform="scale(1,0.864102)"
     id="g212"><path
       inkscape:connector-curvature="0"
       id="path214"
       style="fill:none;stroke:#000000;stroke-width:0.76282501;stroke-linecap:butt;stroke-linejoin:miter;stroke-miterlimit:4;stroke-dasharray:none;stroke-opacity:1"
       d="m 208.922,443.56 h 304.934 v 24.832 H 208.922 Z" /></g><path
     inkscape:connector-curvature="0"
     id="path216"
     style="fill:#ffffff;fill-opacity:0.21568598;fill-rule:nonzero;stroke:none"
     d="m 570.188,327.832 h 104.055 v 76.906 H 570.188 Z" /><g
     transform="scale(1,0.864102)"
     id="g218"><path
       inkscape:connector-curvature="0"
       id="path220"
       style="fill:none;stroke:#000000;stroke-width:0.76582402;stroke-linecap:butt;stroke-linejoin:miter;stroke-miterlimit:4;stroke-dasharray:none;stroke-opacity:1"
       d="m 570.188,379.391 h 104.055 v 89.001 H 570.188 Z" /></g><path
     inkscape:connector-curvature="0"
     id="path222"
     style="fill:#ffffff;fill-opacity:0.21568598;fill-rule:nonzero;stroke:none"
     d="m 513.895,327.832 h 56.293 v 76.902 h -56.293 z" /><g
     transform="scale(1,0.864102)"
     id="g224"><path
       inkscape:connector-curvature="0"
       id="path226"
       style="fill:none;stroke:#000000;stroke-width:0.76851398;stroke-linecap:butt;stroke-linejoin:miter;stroke-miterlimit:4;stroke-dasharray:none;stroke-opacity:1"
       d="m 513.895,379.391 h 56.293 v 88.997 h -56.293 z" /></g><path
     inkscape:connector-curvature="0"
     id="path228"
     style="fill:#000000;fill-opacity:1;fill-rule:nonzero;stroke:none"
     d="m 256.328,383.129 h 0.621 v 21.586 h -0.621 z" /><path
     inkscape:connector-curvature="0"
     id="path230"
     style="fill:#000000;fill-opacity:1;fill-rule:nonzero;stroke:none"
     d="m 361.34,383.203 h 0.621 v 21.691 h -0.621 z" /><path
     inkscape:connector-curvature="0"
     id="path232"
     style="fill:#000000;fill-opacity:1;fill-rule:nonzero;stroke:none"
     d="m 465.84,383.297 h 0.625 v 21.48 h -0.625 z" /><text
     id="text236"
     style="font-variant:normal;font-weight:normal;font-size:10.75765514px;font-family:'DejaVu Sans';-inkscape-font-specification:DejaVuSans;writing-mode:lr-tb;fill:#000000;fill-opacity:1;fill-rule:nonzero;stroke:none"
     transform="matrix(1,0,0,0.86410152,156.97021,370.92348)"><tspan
       id="tspan234"
       sodipodi:role="line"
       y="0"
       x="0 6.8418684">90</tspan></text>
<text
     id="text240"
     style="font-variant:normal;font-weight:normal;font-size:10.21977329px;font-family:'DejaVu Sans';-inkscape-font-specification:DejaVuSans;writing-mode:lr-tb;fill:#000000;fill-opacity:1;fill-rule:nonzero;stroke:none"
     transform="matrix(1,0,0,0.86410148,51.581495,369.28723)"><tspan
       id="tspan238"
       sodipodi:role="line"
       y="0"
       x="0 6.4997754 12.999551 19.499327 22.738995 28.901518 35.380856 44.220959 47.460625 53.9604 57.200069 60.439739 63.444351 69.688629 72.519508 78.988625 82.994774 86.265106">135 PSM 1, Joint 4</tspan></text>
<text
     id="text244"
     style="font-variant:normal;font-weight:normal;font-size:10.75765514px;font-family:'DejaVu Sans';-inkscape-font-specification:DejaVuSans;writing-mode:lr-tb;fill:#000000;fill-opacity:1;fill-rule:nonzero;stroke:none"
     transform="matrix(1,0,0,0.86410152,575.57623,370.92348)"><tspan
       id="tspan242"
       sodipodi:role="line"
       y="0"
       x="0 3.8727558 10.714624 73.065994 76.938751 83.780617 90.622482">-90-135</tspan></text>
</g>
</g></g></svg>